<?xml version="1.0" standalone="no"?>
<!DOCTYPE svg PUBLIC "-//W3C//DTD SVG 20010904//EN"
 "http://www.w3.org/TR/2001/REC-SVG-20010904/DTD/svg10.dtd">
<svg version="1.0" xmlns="http://www.w3.org/2000/svg"
 width="700.000000pt" height="700.000000pt" viewBox="0 0 700.000000 700.000000"
 preserveAspectRatio="xMidYMid meet">
<metadata>
Created by potrace 1.14, written by Peter Selinger 2001-2017
</metadata>
<g transform="translate(0.000000,700.000000) scale(0.100000,-0.100000)"
fill="#000000" stroke="none">
<path d="M3039 6749 c-211 -138 -430 -281 -487 -317 -56 -37 -158 -103 -225
-147 -68 -44 -216 -141 -330 -215 -114 -74 -283 -184 -375 -245 -92 -60 -343
-224 -557 -363 -215 -140 -451 -293 -525 -342 -74 -49 -226 -148 -338 -221
-143 -93 -202 -136 -200 -148 3 -14 23 -16 153 -17 143 -1 152 1 195 25 45 25
133 82 490 315 102 67 292 191 423 276 233 152 545 355 800 522 229 149 359
234 542 353 99 64 331 215 515 335 184 121 340 220 346 220 7 0 82 -46 168
-102 371 -245 599 -394 630 -413 27 -16 450 -292 1318 -860 59 -38 181 -118
270 -176 90 -58 296 -193 458 -299 l295 -193 160 -2 c159 -1 185 1 185 14 0 9
-7 14 -1040 686 -52 34 -115 75 -139 91 -24 16 -56 36 -70 45 -22 14 -999 651
-1401 914 -74 48 -173 113 -220 143 -47 31 -157 103 -245 160 -88 58 -197 129
-242 158 -133 88 -101 99 -554 -197z"/>
<path d="M5004 4332 c-54 -21 -102 -77 -157 -181 -26 -48 -59 -102 -75 -120
-35 -40 -101 -169 -151 -298 -19 -46 -37 -58 -95 -59 -60 -2 -224 -11 -351
-19 -86 -6 -190 -28 -209 -45 -33 -31 241 -60 374 -39 72 10 210 17 210 10 0
-3 -13 -40 -29 -81 -79 -204 -123 -329 -132 -369 -5 -25 -15 -52 -22 -60 -29
-35 -92 -213 -123 -346 -14 -60 -36 -156 -50 -212 -13 -57 -27 -120 -30 -140
-3 -21 -8 -42 -11 -46 -2 -4 -9 -50 -14 -103 -14 -151 12 -227 96 -286 75 -51
138 -47 205 14 82 75 430 528 553 721 21 32 62 90 92 130 60 78 77 129 52 154
-22 22 -49 3 -99 -70 -23 -34 -52 -73 -65 -87 -13 -14 -23 -28 -23 -31 0 -3
-8 -15 -17 -27 -33 -37 -47 -56 -117 -147 -123 -159 -238 -298 -311 -374 -38
-41 -63 -70 -55 -66 10 6 9 1 -3 -13 -11 -11 -32 -25 -48 -31 -37 -13 -48 5
-44 74 7 136 181 713 287 953 10 23 16 48 12 55 -4 7 -4 9 1 5 9 -9 105 210
136 309 27 87 41 94 154 87 68 -5 98 -3 116 7 14 7 46 12 77 11 59 -3 107 18
116 51 8 32 -2 37 -57 32 -90 -9 -307 -13 -312 -5 -6 10 54 130 65 130 6 0 9
3 8 8 -6 19 140 277 150 267 5 -5 50 55 94 126 26 43 29 54 19 75 -6 13 -23
29 -38 35 -44 17 -135 18 -179 1z m-138 -578 c-25 -49 -45 -86 -45 -82 -1 11
83 178 87 174 2 -2 -17 -44 -42 -92z m-53 -109 c-3 -9 -8 -14 -10 -11 -3 3 -2
9 2 15 9 16 15 13 8 -4z m-13 -33 c0 -5 -7 -17 -15 -28 -14 -18 -14 -17 -4 9
12 27 19 34 19 19z m-127 -287 c-3 -9 -8 -14 -10 -11 -3 3 -2 9 2 15 9 16 15
13 8 -4z m-34 -86 c-41 -102 -237 -649 -244 -679 -4 -17 -9 -29 -12 -27 -16
17 127 440 219 647 14 30 31 70 38 88 7 18 15 31 17 29 2 -3 -6 -29 -18 -58z
m-272 -771 c-3 -8 -6 -5 -6 6 -1 11 2 17 5 13 3 -3 4 -12 1 -19z"/>
<path d="M1735 4300 c-75 -17 -151 -63 -236 -142 -78 -73 -215 -231 -234 -271
-9 -21 -30 -46 -45 -57 -37 -26 -166 -220 -221 -330 -41 -85 -149 -357 -170
-430 -23 -81 -30 -228 -14 -297 28 -122 120 -243 217 -288 69 -32 145 -29 214
9 105 57 253 224 414 466 70 106 86 127 71 90 -6 -14 -39 -108 -75 -210 -220
-633 -373 -994 -511 -1206 -70 -108 -111 -153 -159 -174 -100 -46 -150 54
-102 200 48 147 208 421 311 535 99 109 55 147 -53 46 -30 -28 -84 -76 -120
-108 -153 -133 -257 -263 -303 -380 -33 -82 -34 -230 -2 -288 75 -141 284
-228 407 -170 70 33 185 171 264 315 164 301 228 432 262 535 18 58 114 296
165 410 7 17 27 66 44 110 18 44 36 89 41 100 5 11 30 72 55 135 25 63 50 124
55 135 14 31 40 114 40 129 0 12 45 104 107 219 26 49 28 102 4 140 -40 65
-132 116 -184 103 -20 -5 -35 -22 -57 -66 -16 -32 -43 -74 -58 -92 -15 -18
-68 -85 -118 -148 -120 -154 -195 -242 -328 -385 -175 -188 -199 -210 -257
-238 -125 -61 -182 15 -129 173 52 155 213 489 313 650 177 285 430 579 500
580 10 0 16 4 13 8 -3 5 1 9 9 9 8 0 11 -5 8 -10 -4 -6 0 -8 10 -4 10 4 18 0
21 -11 9 -28 4 -86 -8 -101 -9 -12 -8 -13 3 -6 11 6 11 3 -1 -14 -9 -12 -14
-30 -11 -40 2 -9 -8 -49 -23 -87 -29 -72 -74 -156 -74 -139 0 6 -23 -24 -50
-65 -27 -41 -50 -80 -50 -86 0 -45 116 7 226 102 158 136 214 231 192 326 -4
21 -11 55 -14 76 -13 88 -83 176 -178 222 -46 22 -131 31 -181 20z m-419 -437
c-8 -16 -39 -63 -70 -105 -102 -142 -167 -252 -246 -413 -43 -88 -81 -170 -85
-183 -4 -13 -9 -21 -11 -19 -11 10 81 215 147 329 52 90 268 418 274 418 3 0
-1 -12 -9 -27z m655 -809 c-69 -172 -128 -304 -136 -304 -4 0 -4 3 -2 8 3 4
26 60 51 126 62 156 138 328 142 323 3 -2 -22 -71 -55 -153z m-255 -601 c-8
-15 -15 -25 -16 -21 0 12 23 58 27 54 3 -2 -2 -17 -11 -33z"/>
<path d="M2735 3390 c-132 -29 -283 -205 -373 -435 -29 -74 -55 -171 -68 -255
-3 -19 -12 -69 -19 -110 -18 -106 -10 -221 15 -205 4 3 6 -3 3 -13 -7 -29 78
-116 149 -151 114 -57 184 -36 313 94 44 45 85 88 90 96 6 7 25 34 42 59 18
25 46 61 63 80 17 19 77 94 133 165 189 240 196 253 155 278 -25 17 -57 -5
-103 -71 -21 -31 -85 -114 -141 -183 -56 -70 -105 -136 -108 -147 -9 -28 -163
-173 -238 -223 -68 -47 -126 -60 -147 -35 -21 26 -20 102 5 226 13 63 23 129
24 146 0 39 9 47 85 75 125 46 315 212 368 322 36 74 39 151 7 202 -39 63
-165 105 -255 85z m125 -95 c12 -15 15 -43 10 -128 -2 -37 -43 -100 -109 -168
-33 -34 -159 -129 -171 -129 -11 0 58 169 111 270 42 80 112 170 134 170 7 0
18 -7 25 -15z m-513 -592 c-7 -78 -55 -271 -58 -233 -1 14 -1 28 0 33 0 4 4
35 7 70 5 57 42 197 52 197 3 0 2 -30 -1 -67z"/>
<path d="M5525 3304 c-16 -8 -39 -24 -50 -33 -11 -10 -34 -26 -51 -35 -91 -45
-212 -262 -268 -476 -32 -125 -32 -274 1 -335 26 -49 64 -86 89 -86 120 -3
120 -3 214 92 86 87 115 126 235 314 32 50 60 84 62 77 3 -6 -8 -56 -23 -110
-38 -130 -40 -277 -5 -364 27 -69 76 -123 125 -137 69 -18 127 5 200 83 103
108 197 248 298 446 38 74 73 139 78 145 14 17 23 92 13 98 -19 12 -51 -25
-138 -160 -205 -317 -333 -469 -367 -435 -18 18 -15 103 8 222 12 63 20 118
18 122 -8 12 40 143 85 236 51 103 53 138 8 185 -63 67 -127 58 -219 -31 -39
-38 -48 -43 -48 -26 0 29 -64 156 -91 181 -48 44 -120 55 -174 27z m151 -121
c7 -10 10 -29 7 -42 -4 -18 -3 -22 7 -16 9 6 11 4 5 -5 -9 -14 14 -122 28
-131 17 -12 -269 -411 -330 -459 -19 -14 -30 -17 -37 -10 -15 15 -9 121 9 149
6 10 4 12 -6 6 -11 -6 -11 -5 -2 5 6 7 9 19 6 28 -5 11 -3 13 6 7 10 -6 11 -2
6 15 -5 15 -4 20 4 16 7 -4 9 -1 5 7 -8 21 46 168 59 160 6 -4 8 0 4 10 -3 10
-2 17 3 17 5 0 7 6 4 14 -3 7 2 16 11 20 10 3 15 13 12 20 -3 8 -1 16 4 18 5
2 11 13 12 25 0 12 3 20 5 18 2 -2 17 22 33 53 44 88 110 122 145 75z"/>
<path d="M5396 2795 c-9 -26 -7 -32 5 -12 6 10 9 21 6 23 -2 3 -7 -2 -11 -11z"/>
<path d="M3424 3264 c-71 -35 -124 -120 -119 -194 2 -50 28 -126 52 -152 23
-26 94 -46 155 -43 l56 2 -33 -71 c-18 -39 -48 -105 -67 -146 -20 -41 -39 -90
-42 -107 -4 -18 -11 -33 -16 -33 -12 0 -49 -125 -56 -188 -7 -65 16 -149 53
-193 49 -58 127 -75 173 -39 14 11 29 20 34 20 14 0 123 85 184 144 109 104
380 478 439 606 30 67 35 96 18 110 -11 9 -18 9 -34 -2 -11 -8 -100 -120 -197
-249 -97 -129 -192 -252 -210 -274 -18 -23 -39 -53 -46 -67 -27 -51 -165 -155
-193 -145 -19 8 -14 31 45 188 63 166 77 199 135 324 57 122 65 158 39 186
-28 32 -59 41 -169 50 -124 10 -125 11 -119 21 3 4 -2 8 -10 8 -29 0 13 112
51 133 19 12 35 55 27 79 -7 22 -60 48 -96 48 -13 0 -37 -7 -54 -16z m67 -617
c-10 -9 -11 -8 -5 6 3 10 9 15 12 12 3 -3 0 -11 -7 -18z"/>
<path d="M1853 792 l-43 -3 0 -288 0 -288 64 1 63 0 1 66 c0 36 1 81 1 101 l1
37 74 4 c60 3 80 8 113 31 74 51 98 153 56 237 -36 73 -76 94 -193 100 -52 3
-114 4 -137 2z m204 -124 c32 -30 32 -90 -2 -123 -19 -20 -34 -25 -72 -25
l-48 0 3 85 3 85 47 0 c33 0 52 -6 69 -22z"/>
<path d="M2280 792 c-6 -2 -10 -109 -10 -291 l0 -288 167 1 167 1 -1 48 c-1
26 -2 51 -2 57 -1 5 -47 11 -103 12 l-103 3 2 50 c0 28 1 53 2 56 1 3 38 5 84
5 116 -2 114 -3 113 54 -1 27 -5 52 -8 55 -4 4 -48 7 -99 8 l-93 2 -1 45 c-1
25 0 50 2 56 2 6 39 10 94 10 49 -1 95 1 102 4 7 3 12 26 12 58 0 45 -3 52
-20 52 -206 4 -297 4 -305 2z"/>
<path d="M2745 792 c-16 -2 -32 -8 -35 -12 -3 -5 -5 -134 -5 -287 l0 -278 60
-1 c33 0 62 2 65 7 3 4 5 80 4 168 0 89 2 161 7 161 4 0 16 -17 27 -37 11 -21
36 -67 56 -103 20 -36 52 -95 72 -131 l36 -65 64 -1 64 -1 0 289 0 289 -65 0
-65 0 -2 -175 -3 -176 -30 58 c-16 32 -59 111 -95 175 -70 125 -74 129 -155
120z"/>
<path d="M3381 786 c-18 -6 -50 -26 -71 -44 -68 -56 -72 -158 -10 -221 28 -28
86 -51 202 -81 100 -26 119 -90 37 -124 -62 -26 -139 -1 -161 52 -7 15 -13 29
-15 31 -2 3 -30 5 -63 6 -60 1 -60 1 -60 -27 0 -59 50 -124 120 -156 53 -24
203 -22 255 3 65 32 104 88 105 153 0 98 -50 146 -192 183 -109 28 -138 43
-138 73 0 38 34 61 91 59 54 -1 72 -12 92 -52 11 -24 18 -26 70 -26 53 0 57 1
57 23 0 37 -36 95 -74 120 -61 41 -173 54 -245 28z"/>
<path d="M3803 787 c-3 -6 -7 -480 -4 -558 1 -13 13 -16 64 -15 l62 1 1 288
c1 284 1 287 -20 288 -12 0 -38 1 -59 2 -22 1 -41 -1 -44 -6z"/>
<path d="M4190 774 c-240 -111 -241 -430 -2 -541 146 -68 319 2 389 156 54
120 18 258 -89 343 -61 48 -93 60 -173 64 -59 3 -80 -1 -125 -22z m215 -139
c60 -45 83 -113 60 -179 -34 -98 -140 -149 -223 -107 -124 63 -142 207 -37
287 64 49 136 49 200 -1z"/>
<path d="M4684 502 l0 -288 63 -1 63 -1 2 180 3 179 25 -48 c14 -26 58 -107
98 -179 l73 -132 62 2 62 1 2 288 2 287 -64 0 -65 0 0 -177 0 -178 -24 41
c-23 41 -96 175 -146 266 l-25 48 -65 0 -66 0 0 -288z"/>
</g>
</svg>
