<svg xmlns="http://www.w3.org/2000/svg" width="375" viewBox="0 0 375 375" height="375" version="1.0"><defs><clipPath id="a"><path d="M 81.5625 0 L 293.8125 0 L 293.8125 375 L 81.5625 375 Z M 81.5625 0"/></clipPath></defs><g clip-path="url(#a)"><path fill="#b09c59" d="M 229.652344 0.0703125 C 202.957031 0.0703125 179.894531 8.195312 163.707031 24.25 C 147.519531 40.300781 138.707031 63.828125 138.707031 92.703125 L 138.707031 130.457031 L 89.726562 130.457031 C 89.191406 130.457031 88.660156 130.507812 88.132812 130.613281 C 87.609375 130.71875 87.097656 130.871094 86.601562 131.078125 C 86.105469 131.28125 85.636719 131.535156 85.191406 131.832031 C 84.746094 132.128906 84.332031 132.464844 83.953125 132.84375 C 83.574219 133.222656 83.234375 133.632812 82.9375 134.078125 C 82.640625 134.523438 82.390625 134.992188 82.183594 135.488281 C 81.980469 135.980469 81.824219 136.492188 81.71875 137.015625 C 81.613281 137.539062 81.5625 138.070312 81.5625 138.605469 L 81.5625 203.796875 C 81.5625 204.332031 81.613281 204.863281 81.71875 205.386719 C 81.824219 205.914062 81.980469 206.421875 82.183594 206.917969 C 82.390625 207.410156 82.640625 207.878906 82.9375 208.324219 C 83.238281 208.769531 83.574219 209.183594 83.953125 209.558594 C 84.332031 209.9375 84.746094 210.277344 85.191406 210.574219 C 85.636719 210.871094 86.105469 211.121094 86.601562 211.328125 C 87.097656 211.53125 87.609375 211.6875 88.132812 211.789062 C 88.660156 211.894531 89.191406 211.945312 89.726562 211.945312 L 138.707031 211.945312 L 138.707031 366.777344 C 138.707031 367.3125 138.757812 367.84375 138.863281 368.367188 C 138.96875 368.894531 139.125 369.402344 139.328125 369.898438 C 139.535156 370.390625 139.785156 370.863281 140.082031 371.304688 C 140.382812 371.75 140.71875 372.164062 141.097656 372.542969 C 141.476562 372.917969 141.890625 373.257812 142.335938 373.554688 C 142.78125 373.851562 143.25 374.101562 143.746094 374.308594 C 144.242188 374.511719 144.753906 374.667969 145.277344 374.769531 C 145.804688 374.875 146.335938 374.929688 146.871094 374.929688 L 212.179688 374.929688 C 212.714844 374.925781 213.246094 374.875 213.769531 374.769531 C 214.296875 374.667969 214.808594 374.511719 215.300781 374.308594 C 215.796875 374.101562 216.269531 373.851562 216.714844 373.554688 C 217.160156 373.257812 217.570312 372.917969 217.949219 372.539062 C 218.328125 372.164062 218.667969 371.75 218.964844 371.304688 C 219.261719 370.859375 219.515625 370.390625 219.71875 369.898438 C 219.925781 369.402344 220.078125 368.894531 220.183594 368.367188 C 220.289062 367.84375 220.339844 367.3125 220.339844 366.777344 L 220.339844 211.945312 L 277.484375 211.945312 C 277.980469 211.945312 278.46875 211.902344 278.953125 211.8125 C 279.4375 211.726562 279.910156 211.59375 280.371094 211.421875 C 280.832031 211.246094 281.273438 211.03125 281.695312 210.777344 C 282.121094 210.523438 282.515625 210.234375 282.886719 209.910156 C 283.253906 209.585938 283.59375 209.226562 283.898438 208.839844 C 284.203125 208.457031 284.46875 208.042969 284.703125 207.609375 C 284.933594 207.175781 285.121094 206.722656 285.269531 206.253906 C 285.417969 205.785156 285.523438 205.304688 285.585938 204.816406 L 293.75 139.625 C 293.820312 139.050781 293.832031 138.476562 293.78125 137.898438 C 293.730469 137.324219 293.621094 136.761719 293.449219 136.207031 C 293.28125 135.65625 293.054688 135.125 292.769531 134.621094 C 292.488281 134.117188 292.152344 133.648438 291.769531 133.214844 C 291.386719 132.78125 290.964844 132.394531 290.496094 132.050781 C 290.03125 131.707031 289.535156 131.417969 289.007812 131.179688 C 288.480469 130.941406 287.933594 130.761719 287.367188 130.640625 C 286.800781 130.515625 286.226562 130.457031 285.648438 130.457031 L 220.339844 130.457031 L 220.339844 97.859375 C 220.339844 88.761719 227.550781 81.5625 236.667969 81.5625 L 285.648438 81.5625 C 286.183594 81.5625 286.714844 81.511719 287.242188 81.40625 C 287.765625 81.300781 288.277344 81.148438 288.773438 80.941406 C 289.269531 80.738281 289.738281 80.484375 290.183594 80.1875 C 290.628906 79.890625 291.042969 79.554688 291.421875 79.175781 C 291.800781 78.796875 292.140625 78.386719 292.4375 77.941406 C 292.734375 77.496094 292.984375 77.027344 293.191406 76.53125 C 293.394531 76.039062 293.550781 75.527344 293.65625 75.003906 C 293.761719 74.476562 293.8125 73.949219 293.8125 73.414062 L 293.8125 11.039062 C 293.8125 10.546875 293.765625 10.0625 293.679688 9.582031 C 293.589844 9.097656 293.460938 8.628906 293.285156 8.171875 C 293.113281 7.714844 292.902344 7.273438 292.648438 6.855469 C 292.394531 6.433594 292.109375 6.039062 291.785156 5.671875 C 291.460938 5.304688 291.105469 4.96875 290.722656 4.664062 C 290.339844 4.359375 289.929688 4.09375 289.496094 3.859375 C 289.0625 3.628906 288.613281 3.441406 288.148438 3.289062 C 287.679688 3.140625 287.203125 3.03125 286.71875 2.96875 C 279.503906 2.011719 253.460938 0.0703125 229.652344 0.0703125 Z M 229.652344 16.371094 C 249.554688 16.371094 268.792969 17.960938 277.484375 18.773438 L 277.484375 65.265625 L 236.667969 65.265625 C 218.730469 65.265625 204.015625 79.953125 204.015625 97.859375 L 204.015625 138.605469 C 204.015625 139.140625 204.066406 139.671875 204.171875 140.195312 C 204.277344 140.71875 204.429688 141.230469 204.636719 141.722656 C 204.839844 142.21875 205.09375 142.6875 205.390625 143.132812 C 205.6875 143.578125 206.027344 143.988281 206.40625 144.367188 C 206.785156 144.746094 207.199219 145.085938 207.644531 145.382812 C 208.089844 145.679688 208.558594 145.929688 209.054688 146.132812 C 209.550781 146.339844 210.058594 146.492188 210.585938 146.597656 C 211.109375 146.703125 211.640625 146.753906 212.179688 146.753906 L 276.402344 146.753906 L 270.277344 195.648438 L 212.179688 195.648438 C 211.640625 195.648438 211.109375 195.703125 210.585938 195.804688 C 210.058594 195.910156 209.550781 196.066406 209.054688 196.269531 C 208.558594 196.472656 208.089844 196.726562 207.640625 197.023438 C 207.195312 197.320312 206.785156 197.65625 206.40625 198.035156 C 206.027344 198.414062 205.6875 198.828125 205.390625 199.269531 C 205.09375 199.714844 204.839844 200.1875 204.636719 200.679688 C 204.429688 201.175781 204.277344 201.683594 204.171875 202.207031 C 204.066406 202.734375 204.015625 203.261719 204.015625 203.796875 L 204.015625 358.628906 L 155.035156 358.628906 L 155.035156 203.796875 C 155.035156 203.261719 154.980469 202.734375 154.875 202.207031 C 154.773438 201.683594 154.617188 201.171875 154.410156 200.679688 C 154.207031 200.183594 153.957031 199.714844 153.65625 199.269531 C 153.359375 198.824219 153.019531 198.414062 152.640625 198.035156 C 152.261719 197.65625 151.851562 197.320312 151.40625 197.023438 C 150.960938 196.726562 150.488281 196.472656 149.992188 196.269531 C 149.5 196.066406 148.988281 195.910156 148.460938 195.804688 C 147.9375 195.703125 147.40625 195.648438 146.871094 195.648438 L 97.890625 195.648438 L 97.890625 146.753906 L 146.871094 146.753906 C 147.40625 146.753906 147.9375 146.703125 148.460938 146.597656 C 148.988281 146.492188 149.5 146.339844 149.996094 146.132812 C 150.488281 145.929688 150.960938 145.679688 151.40625 145.378906 C 151.851562 145.082031 152.265625 144.746094 152.644531 144.367188 C 153.023438 143.988281 153.359375 143.578125 153.65625 143.132812 C 153.957031 142.6875 154.207031 142.21875 154.414062 141.722656 C 154.617188 141.230469 154.773438 140.71875 154.875 140.195312 C 154.980469 139.671875 155.035156 139.140625 155.035156 138.605469 L 155.035156 92.703125 C 155.035156 67.078125 162.546875 48.371094 175.21875 35.804688 C 187.890625 23.238281 206.21875 16.371094 229.652344 16.371094 Z M 229.652344 16.371094"/></g></svg>