<?xml version="1.0" encoding="UTF-8" standalone="no"?>
<svg
   height="24px"
   viewBox="0 0 24 24"
   width="24px"
   fill="#fffdf7"
   version="1.1"
   id="svg828"
   sodipodi:docname="wiew.svg"
   inkscape:version="1.1 (c68e22c387, 2021-05-23)"
   xmlns:inkscape="http://www.inkscape.org/namespaces/inkscape"
   xmlns:sodipodi="http://sodipodi.sourceforge.net/DTD/sodipodi-0.dtd"
   xmlns="http://www.w3.org/2000/svg"
   xmlns:svg="http://www.w3.org/2000/svg">
  <defs
     id="defs832" />
  <sodipodi:namedview
     id="namedview830"
     pagecolor="#ffffff"
     bordercolor="#666666"
     borderopacity="1.0"
     inkscape:pageshadow="2"
     inkscape:pageopacity="0.0"
     inkscape:pagecheckerboard="0"
     showgrid="false"
     inkscape:zoom="22.627417"
     inkscape:cx="7.9549513"
     inkscape:cy="6.2092814"
     inkscape:window-width="2560"
     inkscape:window-height="1025"
     inkscape:window-x="1358"
     inkscape:window-y="-8"
     inkscape:window-maximized="1"
     inkscape:current-layer="layer1" />
  <path
     d="M0 0h24v24H0V0z"
     fill="none"
     id="path824" />
  <g
     inkscape:groupmode="layer"
     id="g1019"
     inkscape:label="room"
     style="display:inline">
    <path
       id="path1017"
       d="M 3,3 C 1.9,3 1,3.9 1,5 v 14 c 0,1.1 0.9,2 2,2 h 18 c 1.1,0 2,-0.9 2,-2 V 5 C 23,3.9 22.1,3 21,3 Z M 3,4.9902344 H 21 V 19.009766 H 3 Z" />
    <g
       style="fill:#fffdf7"
       id="g931"
       transform="translate(15.096774,0.60387084)">
      <g
         id="g897">
        <rect
           fill="none"
           height="24"
           width="24"
           id="rect895"
           x="0"
           y="0" />
      </g>
    </g>
  </g>
  <g
     inkscape:groupmode="layer"
     id="layer3"
     inkscape:label="img"
     style="display:inline">
    <g
       style="fill:#fffdf7"
       id="g1244"
       transform="translate(8.8722581,2.4309677)">
      <path
         d="M 0,0 H 24 V 24 H 0 Z"
         fill="none"
         id="path1232" />
    </g>
  </g>
  <g
     inkscape:groupmode="layer"
     id="layer1"
     inkscape:label="castle"
     style="display:inline" />
  <g
     inkscape:groupmode="layer"
     id="layer4"
     inkscape:label="mountain"
     style="display:inline">
    <path
       d="m 12.560645,11.62871 -2.9999998,3.87 -2.14,-2.59 -3,3.86 H 16.420645 Z"
       id="path1234"
       style="display:inline;fill:#fffdf7"
       sodipodi:nodetypes="cccccc" />
  </g>
  <g
     inkscape:groupmode="layer"
     id="layer5"
     inkscape:label="cloud"
     style="display:inline">
    <g
       style="fill:#fffdf7"
       id="g1740"
       transform="translate(9.0580645,2.5858065)">
      <path
         d="M 0,0 H 24 V 24 H 0 Z"
         fill="none"
         id="path1728" />
    </g>
  </g>
  <g
     inkscape:groupmode="layer"
     id="layer6"
     inkscape:label="sun"
     style="display:inline">
    <g
       style="fill:#fffdf7;stroke-width:4.096"
       id="g1726"
       transform="matrix(0.24414063,0,0,0.24414063,13.549635,5.8299237)">
      <rect
         fill="none"
         height="24"
         width="24"
         id="rect1714"
         x="0"
         y="0"
         style="stroke-width:8.192" />
      <path
         d="m 12,9 c 1.65,0 3,1.35 3,3 0,1.65 -1.35,3 -3,3 -1.65,0 -3,-1.35 -3,-3 0,-1.65 1.35,-3 3,-3 m 0,-2 c -2.76,0 -5,2.24 -5,5 0,2.76 2.24,5 5,5 2.76,0 5,-2.24 5,-5 C 17,9.24 14.76,7 12,7 Z M 2,13 H 4 C 4.55,13 5,12.55 5,12 5,11.45 4.55,11 4,11 H 2 c -0.55,0 -1,0.45 -1,1 0,0.55 0.45,1 1,1 z m 18,0 h 2 c 0.55,0 1,-0.45 1,-1 0,-0.55 -0.45,-1 -1,-1 h -2 c -0.55,0 -1,0.45 -1,1 0,0.55 0.45,1 1,1 z M 11,2 v 2 c 0,0.55 0.45,1 1,1 0.55,0 1,-0.45 1,-1 V 2 C 13,1.45 12.55,1 12,1 11.45,1 11,1.45 11,2 Z m 0,18 v 2 c 0,0.55 0.45,1 1,1 0.55,0 1,-0.45 1,-1 v -2 c 0,-0.55 -0.45,-1 -1,-1 -0.55,0 -1,0.45 -1,1 z M 5.99,4.58 C 5.6,4.19 4.96,4.19 4.58,4.58 4.19,4.97 4.19,5.61 4.58,5.99 l 1.06,1.06 c 0.39,0.39 1.03,0.39 1.41,0 0.38,-0.39 0.39,-1.03 0,-1.41 z m 12.37,12.37 c -0.39,-0.39 -1.03,-0.39 -1.41,0 -0.39,0.39 -0.39,1.03 0,1.41 l 1.06,1.06 c 0.39,0.39 1.03,0.39 1.41,0 0.39,-0.39 0.39,-1.03 0,-1.41 z M 19.42,5.99 c 0.39,-0.39 0.39,-1.03 0,-1.41 -0.39,-0.39 -1.03,-0.39 -1.41,0 l -1.06,1.06 c -0.39,0.39 -0.39,1.03 0,1.41 0.39,0.38 1.03,0.39 1.41,0 z M 7.05,18.36 c 0.39,-0.39 0.39,-1.03 0,-1.41 -0.39,-0.39 -1.03,-0.39 -1.41,0 l -1.06,1.06 c -0.39,0.39 -0.39,1.03 0,1.41 0.39,0.38 1.03,0.39 1.41,0 z"
         id="path1716"
         style="stroke-width:4.096" />
    </g>
  </g>
</svg>
