<svg xmlns="http://www.w3.org/2000/svg" xmlns:xlink="http://www.w3.org/1999/xlink" width="224.88" viewBox="0 0 224.88 225" height="225" version="1.0"><defs><g id="b"><path d="M 8.480469 -9.8125 L 12.71875 -9.8125 C 17.160156 -9.8125 21.121094 -13.082031 21.121094 -18.65625 C 21.121094 -23.863281 17.160156 -27.460938 12.71875 -27.460938 L 2.421875 -27.460938 L 2.421875 0 L 8.480469 0 Z M 11.710938 -22.695312 C 13.488281 -22.695312 15.34375 -21.160156 15.34375 -18.65625 C 15.34375 -16.03125 13.488281 -14.578125 11.710938 -14.578125 L 8.480469 -14.578125 L 8.480469 -22.695312 Z M 11.710938 -22.695312"/></g><g id="c"><path d="M 18.332031 -5.492188 L 8.480469 -5.492188 L 8.480469 -11.023438 L 17.929688 -11.023438 L 17.929688 -16.515625 L 8.480469 -16.515625 L 8.480469 -21.96875 L 18.332031 -21.96875 L 18.332031 -27.460938 L 2.421875 -27.460938 L 2.421875 0 L 18.332031 0 Z M 18.332031 -5.492188"/></g><g id="d"><path d="M 23.984375 0 L 23.984375 -27.460938 L 17.929688 -27.460938 L 17.929688 -10.335938 L 8.480469 -27.460938 L 2.421875 -27.460938 L 2.421875 0 L 8.480469 0 L 8.480469 -17.121094 L 17.929688 0 Z M 23.984375 0"/></g><g id="e"><path d="M 13.082031 -4.28125 C 10.09375 -4.28125 7.511719 -5.773438 7.347656 -9.046875 L 1.210938 -9.046875 C 1.25 -2.34375 6.785156 0.644531 12.839844 0.644531 C 18.453125 0.644531 24.230469 -1.738281 24.230469 -8.199219 C 24.230469 -18.65625 8.359375 -15.144531 8.359375 -20.027344 C 8.359375 -22.089844 10.742188 -22.894531 12.4375 -22.894531 C 15.464844 -22.894531 17.121094 -21.96875 17.445312 -19.101562 L 23.300781 -19.101562 C 23.097656 -25.359375 18.011719 -27.863281 12.355469 -27.863281 C 7.347656 -27.863281 2.101562 -25.199219 2.101562 -19.542969 C 2.101562 -9.410156 17.96875 -12.839844 17.96875 -7.511719 C 17.96875 -5.046875 14.980469 -4.28125 13.082031 -4.28125 Z M 13.082031 -4.28125"/></g><g id="f"><path d="M 8.480469 0 L 8.480469 -27.460938 L 2.421875 -27.460938 L 2.421875 0 Z M 8.480469 0"/></g><g id="g"><path d="M 23.621094 -13.769531 C 23.621094 -9.53125 19.785156 -5.652344 15.546875 -5.652344 C 11.308594 -5.652344 7.46875 -9.53125 7.46875 -13.769531 C 7.46875 -18.011719 11.308594 -21.847656 15.546875 -21.847656 C 19.785156 -21.847656 23.621094 -18.011719 23.621094 -13.769531 Z M 29.679688 -13.730469 C 29.679688 -21.320312 23.136719 -27.863281 15.546875 -27.863281 C 7.953125 -27.863281 1.414062 -21.320312 1.414062 -13.730469 C 1.414062 -6.136719 7.953125 0.402344 15.546875 0.402344 C 23.136719 0.402344 29.679688 -6.136719 29.679688 -13.730469 Z M 29.679688 -13.730469"/></g><g id="h"><path d="M 46.960938 -35.707031 C 46.714844 -38.5625 40.761719 -42.882812 39.050781 -39.378906 C 38.96875 -39.214844 38.886719 -38.480469 38.5625 -37.992188 C 37.664062 -36.441406 36.359375 -34.976562 35.21875 -33.507812 C 32.367188 -29.839844 29.511719 -26.171875 26.414062 -22.664062 L 22.09375 -17.9375 C 21.847656 -17.609375 18.015625 -13.777344 18.015625 -13.777344 C 18.34375 -13.613281 19.320312 -14.59375 19.566406 -14.757812 C 18.261719 -13.613281 12.882812 -8.804688 10.679688 -11.332031 C 8.804688 -13.453125 11.414062 -18.667969 12.308594 -20.789062 C 13.777344 -24.214844 15.328125 -27.71875 17.039062 -31.0625 C 20.464844 -37.582031 24.703125 -44.023438 29.59375 -49.566406 C 31.304688 -51.523438 33.996094 -55.03125 36.6875 -55.601562 C 39.867188 -56.253906 37.09375 -49.648438 37.503906 -49.566406 C 37.582031 -49.566406 39.703125 -55.84375 36.851562 -55.84375 C 35.546875 -55.84375 33.753906 -54.050781 32.773438 -53.238281 C 31.550781 -52.09375 30.492188 -50.953125 29.429688 -49.8125 C 31.632812 -52.257812 36.851562 -58.046875 38.234375 -55.195312 C 38.886719 -53.726562 38.234375 -51.363281 37.828125 -49.894531 C 36.929688 -46.796875 35.464844 -43.859375 33.671875 -41.089844 C 33.753906 -41.253906 34.976562 -43.535156 34.976562 -43.535156 C 34.648438 -43.617188 31.46875 -38.726562 31.386719 -38.316406 C 31.386719 -38.15625 31.632812 -38.398438 31.875 -38.5625 C 31.386719 -37.910156 31.226562 -37.421875 32.773438 -37.828125 C 35.464844 -38.5625 38.480469 -41.253906 40.4375 -43.128906 C 42.476562 -45.085938 44.921875 -47.855469 44.839844 -50.789062 C 44.839844 -51.933594 44.269531 -52.746094 44.1875 -53.808594 C 44.023438 -54.949219 44.023438 -55.765625 43.289062 -56.90625 C 41.171875 -60.167969 37.582031 -62.449219 33.671875 -61.878906 C 30.164062 -61.472656 27.230469 -59.023438 24.785156 -56.660156 C 23.480469 -55.355469 22.339844 -53.96875 21.117188 -52.585938 C 20.300781 -51.605469 18.507812 -50.21875 18.179688 -48.914062 L 18.832031 -49.566406 C 17.855469 -48.34375 17.039062 -47.039062 16.304688 -46.0625 C 16.222656 -46.0625 16.792969 -47.039062 16.792969 -47.039062 C 16.222656 -47.285156 12.882812 -41.90625 12.554688 -41.414062 C 11.007812 -39.050781 9.621094 -36.6875 8.640625 -34.078125 C 7.664062 -31.46875 6.441406 -28.859375 5.460938 -26.25 C 4.808594 -24.621094 4.320312 -22.992188 3.914062 -21.359375 C 3.832031 -20.871094 3.667969 -18.425781 3.914062 -18.832031 L 3.667969 -16.957031 L 3.667969 -18.425781 C 3.34375 -18.097656 3.667969 -16.46875 3.667969 -16.386719 C 3.503906 -11.007812 8.558594 -3.261719 14.675781 -3.996094 C 18.261719 -4.402344 21.195312 -7.664062 23.480469 -10.191406 C 27.066406 -14.347656 30.328125 -18.996094 33.179688 -23.722656 C 30.246094 -15.410156 27.472656 -7.09375 24.292969 1.058594 C 21.117188 8.96875 17.9375 17.363281 12.882812 24.292969 C 11.578125 26.007812 8.480469 29.675781 6.277344 27.148438 C 3.914062 24.539062 7.253906 18.34375 8.480469 15.898438 C 10.273438 12.066406 12.554688 8.480469 15.164062 5.21875 C 15.570312 4.730469 19.484375 0.976562 16.957031 1.140625 C 15.734375 1.222656 14.265625 3.015625 13.453125 3.75 C 12.308594 4.730469 11.25 5.871094 10.027344 6.765625 C 6.847656 9.375 3.996094 12.554688 1.957031 16.140625 C -1.386719 22.175781 -0.734375 29.269531 6.277344 32.203125 C 8.398438 33.101562 11.25 33.832031 13.453125 32.855469 C 15.652344 31.875 17.527344 29.429688 18.914062 27.554688 C 21.523438 24.214844 23.234375 20.464844 25.191406 16.714844 C 27.066406 13.207031 29.269531 9.539062 30.328125 5.625 C 31.386719 1.875 33.34375 -1.710938 34.8125 -5.460938 L 39.703125 -17.445312 C 40.519531 -19.730469 41.578125 -21.929688 42.3125 -24.132812 C 42.800781 -25.4375 42.636719 -26.25 43.210938 -27.394531 C 44.269531 -29.347656 45.328125 -31.304688 46.308594 -33.261719 C 46.714844 -34.078125 47.039062 -34.8125 46.960938 -35.707031 Z M 11.167969 -35.382812 C 12.800781 -38.074219 14.429688 -40.84375 16.222656 -43.371094 C 17.527344 -45.328125 19.078125 -48.101562 20.953125 -49.648438 C 20.21875 -48.996094 19.566406 -47.53125 19.078125 -46.878906 C 18.015625 -45.492188 17.039062 -44.023438 16.0625 -42.636719 C 13.777344 -39.132812 11.332031 -35.382812 9.621094 -31.550781 C 8.152344 -28.289062 6.359375 -24.703125 5.542969 -21.117188 C 6.523438 -26.089844 8.558594 -30.898438 11.167969 -35.382812 Z M 42.558594 -28.617188 C 41.253906 -25.027344 39.949219 -21.441406 38.480469 -18.015625 C 37.257812 -15.082031 35.628906 -12.230469 34.648438 -9.292969 C 37.09375 -16.550781 40.109375 -23.722656 43.371094 -30.652344 Z M 32.039062 -3.261719 C 31.796875 -2.933594 31.550781 -2.609375 31.386719 -2.28125 L 32.203125 -4.15625 C 32.367188 -4.484375 32.691406 -4.808594 33.019531 -5.136719 C 32.691406 -4.566406 32.449219 -3.832031 32.039062 -3.261719 Z M 31.304688 -2.039062 L 31.386719 -2.28125 C 31.304688 -2.203125 31.304688 -2.121094 31.304688 -2.039062 Z M 25.519531 -44.921875 C 25.519531 -44.839844 25.4375 -44.757812 25.355469 -44.757812 C 25.4375 -44.757812 25.519531 -44.839844 25.519531 -44.921875 Z M 25.519531 -44.921875"/></g><g id="i"><path d="M 31.226562 -20.136719 C 31.226562 -20.054688 31.226562 -20.054688 31.144531 -20.136719 L 31.144531 -20.21875 C 29.839844 -22.417969 28.125 -19.402344 27.394531 -18.34375 C 26.007812 -16.46875 24.703125 -14.675781 23.234375 -12.960938 C 22.011719 -11.496094 20.707031 -10.027344 19.730469 -8.480469 C 19.730469 -8.316406 19.566406 -7.90625 19.566406 -7.90625 C 19.242188 -7.417969 18.75 -7.011719 18.34375 -6.523438 C 17.609375 -5.789062 16.875 -4.972656 16.0625 -4.238281 C 14.835938 -3.097656 7.988281 3.34375 7.09375 -0.816406 C 6.605469 -2.851562 7.253906 -5.378906 7.664062 -7.335938 C 7.90625 -8.398438 8.152344 -9.375 8.316406 -10.433594 C 8.480469 -11.25 8.234375 -12.066406 8.640625 -12.882812 C 8.886719 -13.371094 8.96875 -13.289062 9.539062 -13.453125 L 10.925781 -13.941406 C 11.820312 -14.265625 12.71875 -14.59375 13.535156 -15.082031 C 14.757812 -15.816406 15.898438 -16.714844 16.957031 -17.609375 C 19.484375 -19.730469 22.175781 -22.257812 23.234375 -25.4375 C 23.804688 -27.230469 23.886719 -29.1875 22.746094 -30.734375 C 21.6875 -32.121094 19.890625 -32.855469 18.261719 -33.179688 C 13.859375 -33.996094 10.515625 -31.46875 7.988281 -28.125 C 4.890625 -24.292969 2.691406 -19.566406 1.628906 -14.757812 C 1.058594 -12.390625 0.734375 -10.027344 0.324219 -7.582031 C -0.0820312 -5.136719 -0.324219 -2.851562 0.976562 -0.570312 C 0.898438 -1.386719 0.734375 -2.121094 0.734375 -2.851562 C 0.734375 -3.261719 0.898438 -3.667969 0.898438 -3.996094 C 0.898438 -4.15625 0.734375 -4.648438 0.734375 -4.890625 C 0.734375 -5.625 0.898438 -6.195312 1.058594 -6.929688 C 1.140625 -7.664062 1.058594 -8.398438 1.140625 -9.132812 C 1.222656 -9.945312 1.550781 -10.597656 1.875 -11.332031 C 2.121094 -11.984375 2.203125 -12.554688 2.445312 -13.207031 C 2.691406 -13.777344 2.851562 -14.429688 3.097656 -15.082031 C 3.179688 -15.488281 3.585938 -15.980469 3.832031 -16.46875 C 3.585938 -15.734375 3.097656 -15.082031 2.933594 -14.429688 C 2.691406 -13.453125 2.851562 -12.390625 2.773438 -11.414062 C 2.609375 -10.355469 2.28125 -9.292969 2.121094 -8.152344 C 1.957031 -7.09375 1.46875 -6.113281 1.304688 -5.054688 C 1.140625 -4.078125 0.816406 -3.34375 0.898438 -2.363281 C 0.898438 -1.792969 0.976562 -1.222656 1.058594 -0.734375 C 1.140625 -0.0820312 1.550781 0.324219 1.957031 0.816406 C 3.34375 2.445312 5.21875 3.75 7.335938 4.320312 C 8.804688 4.730469 10.109375 4.648438 11.496094 3.914062 C 13.453125 2.851562 15.164062 1.222656 16.632812 -0.324219 C 18.015625 -1.875 19.078125 -3.585938 20.300781 -5.21875 C 21.441406 -6.683594 22.828125 -8.070312 23.96875 -9.539062 L 28.371094 -15.246094 L 30.898438 -18.589844 C 31.304688 -19.078125 31.550781 -19.484375 31.226562 -20.136719 Z M 11.007812 -19.242188 C 11.085938 -19.402344 11.085938 -19.484375 11.085938 -19.484375 C 12.308594 -22.09375 13.207031 -24.867188 14.917969 -27.394531 L 16.386719 -29.347656 C 16.714844 -29.757812 17.285156 -30.492188 17.855469 -30.652344 C 19.078125 -30.898438 19.402344 -28.777344 19.320312 -27.964844 L 18.996094 -26.25 C 18.914062 -25.761719 19.078125 -25.4375 18.996094 -25.027344 C 18.832031 -24.539062 18.425781 -24.292969 18.179688 -23.886719 L 16.792969 -22.09375 C 14.917969 -19.890625 12.554688 -18.015625 9.945312 -16.632812 C 10.355469 -17.527344 10.597656 -18.425781 11.007812 -19.242188 Z M 11.007812 -19.242188"/></g><g id="j"><path d="M 33.425781 -19.8125 C 32.9375 -21.929688 30.980469 -19.078125 30.574219 -18.589844 L 26.089844 -12.554688 L 21.6875 -6.765625 L 19.320312 -3.75 C 19.078125 -3.425781 17.285156 -1.140625 17.445312 -1.140625 C 17.609375 -1.304688 17.855469 -1.304688 18.097656 -1.550781 C 16.875 -0.246094 12.390625 3.832031 11.578125 2.851562 C 10.925781 2.039062 12.71875 -1.386719 12.960938 -2.203125 C 13.859375 -4.566406 14.675781 -7.011719 15.652344 -9.292969 C 16.714844 -11.660156 17.9375 -14.023438 18.914062 -16.386719 C 19.890625 -18.914062 18.425781 -19.8125 16.0625 -20.382812 C 15 -20.625 13.695312 -20.625 12.472656 -20.789062 C 12.472656 -20.707031 12.554688 -20.707031 12.554688 -20.707031 C 13.613281 -20.542969 15.164062 -20.464844 16.46875 -20.054688 C 14.511719 -20.625 12.066406 -20.382812 10.515625 -20.789062 C 9.457031 -21.035156 8.804688 -21.035156 8.96875 -22.257812 C 9.132812 -23.886719 10.84375 -25.597656 11.414062 -27.148438 C 11.414062 -27.066406 10.84375 -25.597656 10.925781 -25.597656 C 11.332031 -25.4375 11.984375 -27.71875 11.984375 -28.046875 C 11.902344 -28.453125 10.925781 -29.675781 10.84375 -29.1875 L 11.007812 -28.941406 C 7.09375 -31.632812 2.445312 -26.089844 3.261719 -22.09375 C 3.425781 -21.523438 3.75 -21.195312 3.996094 -20.542969 C 4.15625 -20.054688 3.996094 -19.484375 4.484375 -18.832031 C 6.195312 -16.714844 9.292969 -16.632812 11.738281 -17.121094 C 11.332031 -16.550781 7.011719 -7.417969 7.253906 -7.335938 L 6.683594 -5.300781 C 6.605469 -5.378906 6.929688 -6.03125 6.765625 -6.03125 C 6.195312 -6.113281 5.054688 -1.386719 4.972656 -0.976562 C 4.648438 0.976562 4.730469 2.691406 5.542969 4.484375 C 6.03125 5.625 6.605469 6.605469 7.664062 7.253906 C 8.640625 7.90625 9.863281 8.234375 11.007812 7.988281 C 11.414062 7.828125 12.960938 6.765625 12.554688 6.847656 L 13.125 6.605469 C 13.042969 6.683594 12.960938 6.765625 12.960938 6.847656 C 13.207031 6.929688 16.957031 3.914062 17.445312 3.585938 C 20.054688 1.386719 22.175781 -1.304688 24.132812 -3.996094 C 26.089844 -6.765625 28.125 -9.539062 30 -12.308594 C 30.898438 -13.613281 31.714844 -14.917969 32.367188 -16.304688 C 32.855469 -17.285156 33.671875 -18.667969 33.425781 -19.8125 Z M 9.050781 -10.027344 C 9.621094 -11.496094 10.273438 -12.882812 11.007812 -14.265625 C 11.167969 -14.511719 12.308594 -17.445312 12.882812 -17.609375 C 12.472656 -17.363281 10.761719 -13.371094 10.355469 -12.636719 L 8.804688 -9.050781 C 7.988281 -7.09375 7.09375 -5.054688 6.523438 -2.933594 C 7.09375 -5.378906 8.070312 -7.746094 9.050781 -10.027344 Z M 7.09375 5.625 C 7.582031 6.277344 8.234375 6.929688 9.132812 7.253906 C 8.398438 7.011719 7.746094 6.605469 7.253906 6.113281 C 7.335938 6.113281 7.335938 6.195312 7.335938 6.277344 C 6.847656 5.625 6.195312 4.238281 6.113281 3.996094 C 5.871094 3.015625 5.789062 1.875 5.871094 0.898438 C 5.871094 0.0820312 5.953125 -0.570312 6.113281 -1.304688 L 6.113281 -1.222656 C 5.953125 -0.164062 5.871094 0.898438 5.953125 2.039062 L 5.953125 2.445312 C 5.871094 2.363281 5.871094 2.28125 5.871094 2.28125 C 5.871094 2.28125 5.871094 2.363281 5.953125 2.527344 L 5.953125 2.609375 L 6.277344 4.320312 L 6.03125 3.261719 C 6.195312 3.75 6.605469 4.648438 7.011719 5.542969 L 6.929688 5.460938 C 6.929688 5.542969 7.011719 5.625 7.09375 5.707031 Z M 9.375 -21.277344 C 9.78125 -20.953125 10.515625 -20.871094 11.25 -20.789062 C 10.597656 -20.871094 10.027344 -21.035156 9.621094 -21.359375 C 9.621094 -21.359375 9.132812 -21.765625 9.050781 -21.929688 C 9.050781 -21.765625 9.210938 -21.359375 9.375 -21.277344 Z M 17.9375 -14.917969 L 16.222656 -11.332031 L 17.9375 -15 Z M 6.195312 -1.550781 C 6.195312 -1.46875 6.113281 -1.386719 6.113281 -1.304688 L 6.113281 -1.386719 C 6.113281 -1.46875 6.195312 -1.46875 6.195312 -1.550781 Z M 18.015625 -15.164062 L 18.015625 -15.082031 L 17.9375 -15.082031 Z M 18.015625 -15.164062 L 18.015625 -15.082031 L 17.9375 -15.082031 Z M 6.277344 -2.609375 C 6.277344 -2.691406 6.359375 -2.773438 6.359375 -2.933594 C 6.359375 -2.773438 6.277344 -2.691406 6.277344 -2.609375 Z M 6.605469 4.890625 C 6.605469 4.890625 6.683594 4.972656 6.683594 5.054688 C 6.683594 4.972656 6.605469 4.972656 6.605469 4.890625 Z M 9.132812 -22.09375 C 9.050781 -22.09375 9.050781 -22.011719 9.050781 -22.011719 Z M 9.132812 -22.09375"/></g><g id="k"><path d="M 33.101562 -42.394531 C 33.019531 -43.535156 31.796875 -42.636719 31.144531 -42.636719 C 27.882812 -42.476562 24.621094 -42.476562 21.441406 -42.3125 C 21.441406 -42.394531 21.605469 -42.71875 21.847656 -43.210938 C 21.523438 -42.636719 21.277344 -42.3125 21.035156 -42.3125 C 23.480469 -47.285156 26.089844 -52.257812 29.1875 -56.824219 C 29.105469 -56.660156 27.882812 -54.621094 27.964844 -54.621094 C 28.207031 -54.542969 31.226562 -58.699219 31.304688 -59.269531 C 31.304688 -59.597656 30.574219 -58.78125 30.574219 -58.863281 C 31.0625 -59.351562 31.875 -59.757812 32.121094 -60.410156 C 32.691406 -62.042969 30.980469 -62.777344 29.757812 -63.019531 C 27.230469 -63.507812 24.375 -63.183594 22.746094 -61.0625 C 21.195312 -59.1875 20.054688 -56.988281 19.078125 -54.785156 C 18.589844 -53.808594 17.9375 -53.5625 17.285156 -52.667969 C 16.304688 -51.28125 15.652344 -49.648438 14.917969 -48.101562 C 14.265625 -46.714844 13.613281 -45.246094 13.042969 -43.78125 C 12.71875 -43.046875 12.71875 -42.476562 11.984375 -42.230469 C 11.25 -41.90625 9.863281 -42.148438 9.050781 -42.066406 C 5.871094 -41.660156 2.773438 -41.824219 -0.40625 -41.496094 C -2.039062 -41.414062 -3.667969 -41.414062 -5.21875 -40.84375 C -5.542969 -40.761719 -7.335938 -40.355469 -7.5 -40.109375 C -7.988281 -39.214844 -6.03125 -39.132812 -5.625 -39.050781 C -2.527344 -38.644531 1.386719 -38.316406 4.484375 -38.886719 C 6.605469 -39.296875 8.804688 -39.132812 11.085938 -39.296875 C 9.945312 -36.851562 9.050781 -34.242188 8.152344 -31.632812 L 7.175781 -28.777344 C 6.847656 -27.882812 5.789062 -26.171875 5.789062 -25.191406 C 5.789062 -25.027344 6.03125 -25.4375 6.195312 -25.84375 C 5.789062 -24.621094 5.300781 -23.398438 4.972656 -22.175781 C 4.972656 -22.257812 5.21875 -23.234375 5.136719 -23.234375 C 4.730469 -23.234375 3.097656 -18.261719 2.933594 -17.855469 C 2.121094 -15.410156 1.222656 -12.960938 0.816406 -10.355469 C 0.324219 -7.746094 -0.324219 -5.21875 -0.898438 -2.691406 C -1.222656 -1.386719 -1.550781 -0.164062 -1.710938 1.140625 C -1.875 1.792969 -2.039062 2.527344 -2.039062 3.179688 C -2.039062 3.34375 -2.039062 4.402344 -1.875 4.078125 L -2.039062 5.707031 L -2.039062 4.484375 C -2.527344 5.054688 -2.039062 7.664062 -1.957031 8.152344 C -1.628906 9.78125 -0.816406 11.25 0.652344 12.230469 C 1.957031 13.207031 3.996094 14.105469 5.542969 13.371094 C 7.582031 12.390625 9.292969 10.109375 10.597656 8.480469 C 13.453125 5.136719 16.0625 1.628906 18.667969 -1.875 C 21.035156 -5.136719 23.480469 -8.316406 25.519531 -11.738281 C 26.660156 -13.695312 28.859375 -15.488281 29.59375 -17.691406 C 30 -18.75 29.757812 -20.054688 28.453125 -19.8125 C 27.394531 -19.566406 25.925781 -16.714844 25.273438 -15.898438 C 22.339844 -12.230469 19.566406 -8.480469 16.632812 -4.808594 L 11.902344 0.976562 C 11.167969 1.792969 10.433594 2.691406 9.621094 3.503906 C 9.292969 3.914062 7.253906 5.542969 7.335938 6.03125 C 7.335938 6.195312 8.234375 5.460938 8.558594 5.21875 C 8.152344 5.707031 7.664062 6.113281 7.253906 6.523438 C 7.335938 6.441406 5.625 7.417969 5.378906 7.253906 C 3.832031 6.605469 5.21875 1.875 5.460938 0.734375 C 6.929688 -5.871094 9.132812 -12.554688 11.332031 -18.914062 C 12.636719 -22.417969 13.941406 -25.761719 15.410156 -29.1875 C 16.140625 -30.898438 16.875 -32.691406 17.691406 -34.402344 L 18.832031 -37.503906 L 17.9375 -35.707031 C 18.507812 -37.175781 19.320312 -39.378906 19.8125 -39.457031 L 19.566406 -38.96875 C 19.730469 -39.214844 19.890625 -39.378906 20.054688 -39.457031 C 20.953125 -40.03125 23.234375 -39.457031 24.292969 -39.457031 C 25.027344 -39.457031 25.925781 -39.378906 26.660156 -39.621094 C 27.148438 -39.785156 26.984375 -40.03125 27.554688 -40.191406 C 28.535156 -40.355469 29.757812 -39.703125 30.816406 -40.03125 C 31.796875 -40.273438 33.179688 -41.171875 33.101562 -42.3125 Z M 17.609375 -37.664062 C 13.941406 -29.921875 11.167969 -21.605469 8.234375 -13.535156 C 6.847656 -9.863281 5.542969 -6.03125 4.648438 -2.203125 L 4.238281 -0.652344 C 4.808594 -3.585938 5.460938 -6.441406 6.277344 -9.292969 C 8.070312 -15.570312 10.355469 -21.765625 13.042969 -27.71875 C 17.609375 -37.910156 21.6875 -48.835938 28.207031 -58.046875 C 23.804688 -51.769531 20.871094 -44.59375 17.609375 -37.664062 Z M 22.992188 -45.738281 L 24.945312 -49.488281 C 24.539062 -49.40625 23.804688 -47.613281 22.992188 -45.738281 Z M 14.59375 -27.964844 C 14.023438 -26.414062 13.371094 -24.945312 12.71875 -23.480469 C 13.371094 -25.027344 13.941406 -26.660156 14.675781 -28.289062 C 14.59375 -28.125 14.59375 -28.046875 14.59375 -27.964844 Z M 21.929688 -43.371094 L 22.746094 -45.164062 C 22.5 -44.511719 22.175781 -43.859375 21.929688 -43.371094 Z M 4.15625 7.988281 C 4.078125 7.988281 3.996094 7.90625 3.914062 7.828125 Z M 4.15625 7.988281"/></g><g id="l"><path d="M 41.496094 -19.648438 C 41.414062 -21.441406 39.949219 -19.890625 39.457031 -19.242188 C 38.398438 -17.691406 37.421875 -16.0625 36.441406 -14.511719 C 34.242188 -11.167969 32.039062 -7.828125 29.511719 -4.648438 C 21.117188 5.707031 26.984375 -12.71875 26.332031 -12.554688 C 26.007812 -12.472656 25.761719 -11.25 25.679688 -11.007812 C 26.332031 -13.941406 27.554688 -17.445312 29.105469 -20.300781 C 30 -22.09375 31.0625 -23.5625 29.429688 -25.519531 C 26.414062 -29.1875 22.910156 -25.84375 20.953125 -23.316406 C 20.136719 -26.414062 18.507812 -30.980469 14.511719 -30.980469 C 12.71875 -30.980469 11.660156 -30.082031 10.433594 -29.023438 C 9.703125 -28.535156 9.132812 -28.453125 8.480469 -27.882812 C 7.417969 -27.148438 6.683594 -26.007812 5.953125 -25.027344 C 3.179688 -20.953125 1.222656 -15.816406 0.324219 -11.085938 C -0.0820312 -8.804688 -0.246094 -6.277344 0.40625 -3.996094 C 0.816406 -2.691406 2.28125 0.246094 4.15625 0 C 4.238281 0 4.078125 -0.0820312 3.832031 -0.246094 C 4.972656 0.0820312 6.277344 -0.0820312 7.253906 -0.734375 C 7.335938 -0.570312 6.359375 -0.164062 6.359375 -0.164062 C 7.253906 1.222656 13.941406 -6.847656 14.429688 -7.582031 C 15.488281 -9.050781 16.222656 -10.597656 17.203125 -12.148438 C 17.9375 -13.289062 19.078125 -14.757812 19.890625 -15.980469 C 19.8125 -15.410156 19.8125 -14.675781 19.8125 -14.675781 C 18.34375 -10.027344 16.957031 -4.972656 18.914062 -0.164062 C 19.8125 2.28125 22.011719 4.566406 24.785156 4.078125 C 27.230469 3.667969 29.269531 1.304688 30.734375 -0.570312 C 32.527344 -2.691406 34.078125 -5.054688 35.628906 -7.5 C 36.929688 -9.703125 38.15625 -11.902344 39.214844 -14.347656 C 39.867188 -15.898438 41.660156 -17.773438 41.496094 -19.648438 Z M 18.097656 -19.078125 C 17.691406 -18.507812 17.285156 -17.9375 16.957031 -17.363281 L 14.835938 -14.347656 C 13.453125 -12.308594 11.984375 -10.355469 10.433594 -8.480469 C 10.027344 -7.90625 8.070312 -5.378906 7.253906 -5.625 C 6.03125 -6.03125 7.335938 -10.273438 7.5 -10.925781 C 7.746094 -12.066406 12.066406 -24.621094 13.207031 -24.867188 C 11.738281 -24.945312 7.011719 -10.191406 6.765625 -8.96875 C 7.417969 -12.960938 8.886719 -16.875 10.515625 -20.542969 C 11.414062 -22.417969 13.453125 -27.394531 16.140625 -27.394531 C 17.609375 -27.394531 17.9375 -24.375 18.179688 -23.398438 C 18.097656 -23.5625 17.363281 -25.925781 17.285156 -25.84375 C 16.875 -25.519531 18.507812 -21.035156 18.507812 -20.382812 C 18.507812 -19.730469 18.507812 -19.730469 18.097656 -19.078125 Z M 19.972656 -15.082031 C 19.972656 -15.082031 20.21875 -16.222656 20.300781 -16.46875 L 20.707031 -17.039062 Z M 18.75 -20.136719 L 18.75 -20.953125 C 18.996094 -20.625 18.996094 -20.382812 18.75 -20.136719 Z M 18.75 -20.136719"/></g><clipPath id="a"><path d="M 16.210938 0.0585938 L 208.570312 0.0585938 L 208.570312 62.136719 L 16.210938 62.136719 Z M 16.210938 0.0585938"/></clipPath></defs><g clip-path="url(#a)"><path fill="#FFFDF7" d="M 112.429688 -1.273438 L 145.035156 20.054688 L 208.570312 61.558594 L 208.570312 232.875 L 16.210938 232.875 L 16.210938 61.59375 L 79.746094 20.09375 Z M 202.96875 64.625 L 141.972656 24.773438 L 112.429688 5.425781 L 82.769531 24.773438 L 21.773438 64.625 L 21.773438 227.261719 L 202.929688 227.261719 L 202.929688 64.625 Z M 202.96875 64.625"/></g><g fill="#FFFDF7"><use x="31.082" y="215.213" xmlns:xlink="http://www.w3.org/1999/xlink" xlink:href="#b" xlink:type="simple" xlink:actuate="onLoad" xlink:show="embed"/></g><g fill="#FFFDF7"><use x="52.802" y="215.213" xmlns:xlink="http://www.w3.org/1999/xlink" xlink:href="#c" xlink:type="simple" xlink:actuate="onLoad" xlink:show="embed"/></g><g fill="#FFFDF7"><use x="73.554" y="215.213" xmlns:xlink="http://www.w3.org/1999/xlink" xlink:href="#d" xlink:type="simple" xlink:actuate="onLoad" xlink:show="embed"/></g><g fill="#FFFDF7"><use x="99.958" y="215.213" xmlns:xlink="http://www.w3.org/1999/xlink" xlink:href="#e" xlink:type="simple" xlink:actuate="onLoad" xlink:show="embed"/></g><g fill="#FFFDF7"><use x="125.393" y="215.213" xmlns:xlink="http://www.w3.org/1999/xlink" xlink:href="#f" xlink:type="simple" xlink:actuate="onLoad" xlink:show="embed"/></g><g fill="#FFFDF7"><use x="136.294" y="215.213" xmlns:xlink="http://www.w3.org/1999/xlink" xlink:href="#g" xlink:type="simple" xlink:actuate="onLoad" xlink:show="embed"/></g><g fill="#FFFDF7"><use x="167.381" y="215.213" xmlns:xlink="http://www.w3.org/1999/xlink" xlink:href="#d" xlink:type="simple" xlink:actuate="onLoad" xlink:show="embed"/></g><g fill="#FFFDF7"><use x="24.886" y="137.092" xmlns:xlink="http://www.w3.org/1999/xlink" xlink:href="#h" xlink:type="simple" xlink:actuate="onLoad" xlink:show="embed"/></g><g fill="#FFFDF7"><use x="74.369" y="137.092" xmlns:xlink="http://www.w3.org/1999/xlink" xlink:href="#i" xlink:type="simple" xlink:actuate="onLoad" xlink:show="embed"/></g><g fill="#FFFDF7"><use x="103.798" y="137.092" xmlns:xlink="http://www.w3.org/1999/xlink" xlink:href="#j" xlink:type="simple" xlink:actuate="onLoad" xlink:show="embed"/></g><g fill="#FFFDF7"><use x="135.346" y="137.092" xmlns:xlink="http://www.w3.org/1999/xlink" xlink:href="#k" xlink:type="simple" xlink:actuate="onLoad" xlink:show="embed"/></g><g fill="#FFFDF7"><use x="164.449" y="137.092" xmlns:xlink="http://www.w3.org/1999/xlink" xlink:href="#l" xlink:type="simple" xlink:actuate="onLoad" xlink:show="embed"/></g></svg>